<svg id="Capa_1" enable-background="new 0 0 512 512" height="512" viewBox="0 0 512 512" width="512" xmlns="http://www.w3.org/2000/svg"><g><g><path d="m362 276c33.14 0 60 29.86 60 63h-166c0-33.14 26.86-63 60-63z" fill="#ff7b79"/><path d="m502 502h-160c0-33.14 26.86-63 60-63h40c33.14 0 60 29.86 60 63z" fill="#91def5"/><path d="m110 439c33.14 0 60 29.86 60 63h-160c0-33.14 26.86-63 60-63z" fill="#91def5"/><path d="m256 339h-166c0-33.14 26.86-63 60-63h46c33.14 0 60 29.86 60 63z" fill="#ff7b79"/><path d="m276 112c33.14 0 60 29.86 60 63h-160c0-33.14 26.86-63 60-63z" fill="#ffda8f"/><path d="m282 439c33.14 0 60 29.86 60 63h-172c0-33.14 26.86-63 60-63z" fill="#91def5"/><g fill="#fce8d0"><path d="m296 216c0-22.08 17.9-40.99 39.98-41h.02c22.09 0 40 18.91 40 41s-17.91 40-40 40-40-17.91-40-40z"/><path d="m382 379c0-22.08 17.9-39.99 39.98-40h.02c22.09 0 40 17.91 40 40s-17.91 40-40 40-40-17.91-40-40z"/><path d="m216 379c0-22.08 17.9-39.99 39.98-40h.02c22.09 0 40 17.91 40 40s-17.91 40-40 40-40-17.91-40-40z"/><circle cx="256" cy="51" r="41"/><path d="m176 175c22.09 0 40 18.91 40 41s-17.91 40-40 40-40-17.91-40-40 17.91-41 40-41z"/><circle cx="90" cy="379" r="40"/></g></g><g><path d="m140 379c0-11.247-3.735-21.637-10.027-30.01h86.057c-6.294 8.373-10.03 18.764-10.03 30.01 0 27.57 22.43 50 50 50s50-22.43 50-50c0-11.247-3.735-21.637-10.027-30.01h86.057c-6.294 8.373-10.03 18.764-10.03 30.01 0 27.57 22.43 50 50 50s50-22.43 50-50c0-24.354-17.505-44.684-40.591-49.1-4.451-35.461-34.415-63.9-69.409-63.9h-46c-25.11 0-47.631 14.646-60 36.016-12.37-21.37-34.891-36.016-60-36.016h-46c-34.994 0-64.958 28.439-69.409 63.9-23.086 4.416-40.591 24.746-40.591 49.1 0 27.57 22.43 50 50 50s50-22.43 50-50zm146 0c0 16.542-13.458 30-30 30s-30-13.458-30-30c0-16.535 13.451-29.993 29.985-30h.015c16.542 0 30 13.458 30 30zm166 0c0 16.542-13.458 30-30 30s-30-13.458-30-30c0-16.535 13.451-29.993 29.985-30h.015c16.542 0 30 13.458 30 30zm-136-93h46c23.432 0 44.331 19.168 49.021 43h-144.042c4.69-23.832 25.589-43 49.021-43zm-166 0h46c23.431 0 44.332 19.168 49.021 43h-144.042c4.689-23.832 25.59-43 49.021-43zm-60 123c-16.542 0-30-13.458-30-30s13.458-30 30-30 30 13.458 30 30-13.458 30-30 30z"/><path d="m442 429h-40c-25.11 0-47.631 14.646-60 36.016-12.369-21.37-34.89-36.016-60-36.016h-52c-25.109 0-47.631 14.646-60 36.017-12.369-21.371-34.891-36.017-60-36.017h-40c-37.944 0-70 33.43-70 73 0 5.522 4.477 10 10 10h201c5.523 0 10-4.478 10-10s-4.477-10-10-10h-30.021c4.689-23.832 25.59-43 49.021-43h52c23.432 0 44.331 19.168 49.021 43h-30.021c-5.522 0-10 4.478-10 10s4.478 10 10 10h201c5.522 0 10-4.478 10-10 0-39.57-32.056-73-70-73zm-421.021 63c4.689-23.832 25.59-43 49.021-43h40c23.431 0 44.332 19.168 49.021 43zm332 0c4.689-23.832 25.589-43 49.021-43h40c23.432 0 44.331 19.168 49.021 43z"/><path d="m226 216c0-11.278-3.693-22.075-10.481-31.01h80.963c-6.789 8.935-10.482 19.734-10.482 31.01 0 27.57 22.43 50 50 50s50-22.43 50-50c0-25.128-18.192-45.664-40.588-50.076-4.441-35.472-34.41-63.924-69.412-63.924h-40c-35.001 0-64.971 28.452-69.412 63.924-22.383 4.409-40.588 24.936-40.588 50.076 0 27.57 22.43 50 50 50s50-22.43 50-50zm140 0c0 16.542-13.458 30-30 30s-30-13.458-30-30c0-16.797 13.731-30.993 29.985-31h.015c16.262 0 30 14.196 30 31zm-130-94h40c23.432 0 44.331 19.168 49.021 43h-138.042c4.689-23.832 25.59-43 49.021-43zm-60 124c-16.542 0-30-13.458-30-30 0-16.804 13.738-31 30-31s30 14.196 30 31c0 16.542-13.458 30-30 30z"/><path d="m307 51c0-27.645-23.355-51-51-51s-51 23.355-51 51 23.355 51 51 51 51-23.355 51-51zm-51 31c-16.514 0-31-14.486-31-31s14.486-31 31-31 31 14.486 31 31-14.486 31-31 31z"/><circle cx="256" cy="502" r="10"/></g></g></svg>